<?xml version="1.0" encoding="utf-8"?>
<!-- Generator: Adobe Illustrator 23.0.0, SVG Export Plug-In . SVG Version: 6.00 Build 0)  -->
<svg version="1.1" id="logo" xmlns="http://www.w3.org/2000/svg" xmlns:xlink="http://www.w3.org/1999/xlink" x="0px" y="0px"
	 viewBox="0 0 313.94 99.78" style="enable-background:new 0 0 313.94 99.78;" xml:space="preserve">
<style type="text/css">
	.st0{fill:#FFFFFF;}
	.st1{fill-rule:evenodd;clip-rule:evenodd;fill:#FFFFFF;}
</style>
<g>
	<g>
		<path class="st0" d="M0,47.41c0-10.18,7.59-17.95,17.98-17.95c4.58,0,8.03,1.53,10.25,3.16l-1.97,6.13
			c-1.67-1.19-4.78-2.77-8.27-2.77c-6.26,0-10.74,4.89-10.74,11.42c0,6.62,4.48,11.42,10.74,11.42c3.74,0,6.95-1.68,8.57-2.82
			l1.97,6.08c-2.07,1.53-5.52,3.26-10.54,3.26C7.19,65.35,0,57.59,0,47.41z"/>
		<path class="st0" d="M41.07,30.1h6.95v34.61h-6.95V30.1z"/>
		<path class="st0" d="M68.24,41.18v23.53H61.4V30.1h7.04l14.73,23.73V30.1h6.85v34.61h-6.9L68.24,41.18z"/>
		<path class="st0" d="M103.39,30.1h17.73v6.28h-10.79v7.71h9.26v6.18h-9.26v8.21h11.23v6.23h-18.18V30.1z"/>
		<path class="st0" d="M154.2,37.02l-5.76,2.62c-0.74-1.63-2.02-3.76-5.02-3.76c-2.36,0-3.74,1.43-3.74,3.31
			c0,5.73,14.97,4.89,14.97,15.62c0,6.08-4.33,10.53-11.53,10.53c-7.39,0-10.44-5.19-11.43-8.01l5.86-2.87
			c0.94,2.27,2.86,4.4,5.96,4.4c2.56,0,4.09-1.33,4.09-3.56c0-5.93-14.88-4.94-14.88-16.02c0-5.83,4.24-9.84,10.84-9.84
			C150.51,29.46,153.37,34.5,154.2,37.02z"/>
	</g>
	<g>
		<path class="st0" d="M94.65,82.36l-2.53,2.63c-0.6-0.66-2.31-2.2-5.15-2.2c-3.9,0-6.32,2.91-6.32,6.63c0,4.09,2.73,6.6,6.32,6.6
			c2.79,0,4.35-1.14,4.78-1.57v-2.46h-3.79v-3.4h7.54v7.91c-2.13,1.83-4.53,3.29-8.71,3.29c-5.64,0-10.33-4.06-10.33-10.37
			c0-5.74,4.27-10.37,10.33-10.37C90.98,79.04,93.62,81.13,94.65,82.36z"/>
		<path class="st0" d="M101.56,79.42h6.01c4.35,0,6.75,2.66,6.75,5.94c0,2.43-1.2,4.29-3.02,5.28l4.72,8.77h-4.44l-3.87-7.83h-2.13
			v7.83h-4.01V79.42z M107.46,88.19c1.45,0,2.73-0.91,2.73-2.69c0-1.6-1.11-2.6-2.93-2.6h-1.68v5.28H107.46z"/>
		<path class="st0" d="M125.1,94.27l-1.74,5.14h-4.04l7.06-20h4.21l7.06,20h-4.04l-1.74-5.14H125.1z M128.49,83.73l-2.31,7.2h4.64
			L128.49,83.73z"/>
		<path class="st0" d="M146.5,85.82v13.6h-3.96v-20h4.07l8.51,13.71V79.42h3.96v20h-3.98L146.5,85.82z"/>
		<path class="st0" d="M193.67,99.41l-7.34-20h4.41l5.1,15.25l5.09-15.25h4.41l-7.32,20H193.67z"/>
		<path class="st0" d="M210.21,79.42h4.01v20h-4.01V79.42z"/>
		<path class="st0" d="M224.92,94.27l-1.74,5.14h-4.04l7.06-20h4.21l7.06,20h-4.04l-1.74-5.14H224.92z M228.31,83.73l-2.31,7.2h4.64
			L228.31,83.73z"/>
	</g>
	<path class="st1" d="M214.21,44.84c2.84-4.06,5.53-8.45,7.75-12.65c5.84-11.07,5.44-16.37,4.12-15.84
		c-1.32,0.53-5.9,8.82-10.34,23.25C215.17,41.47,214.66,43.22,214.21,44.84z M177.95,48.87c-2.51,6.86-4.14,12.39-5.19,17.74
		c-1.32,6.69-2.96,20.46-1.33,20.38c3.29-0.16,7.15-14.21,8.42-21.07c1.81-9.8,0.51-16.17-1.56-16.93L177.95,48.87z M204.94,24.47
		c0,0,3.98-0.88,4.09,2.89c0.06,2.17-5.61,7.02-6.21,3.42C202.22,27.19,203.89,24.73,204.94,24.47z M276.05,41.49
		c1.93,0,4.01,2.62,2.71,3.08c-1.29,0.46-4.38,0.3-8.19,3.88c-4.18,3.92-3.86,6.15-3.3,6.71c1.75,1.75,6.98-4.58,9.76-7.75
		c1.33-1.51,3.81,1.13,4.05,1.86c0.07,0.22-0.58,1.47-0.97,2.37c-0.8,1.84-0.14,4.99,3.97,3.8c2.4-0.69,3.85-3.19,4.56-4.21
		c-1.71-2.89-3.19-5.84-3.62-6.47c-1.25-1.83,2.88-2.28,3.57-1.59c0.86,0.86,2.46,3.6,3.21,4.72c5.89-6.21,7.22-8.43,7.74-8.87
		c0.78-0.65,3.14,1.81,1.98,3.52c-0.89,1.31-5.07,6.06-7.57,8.77c1.75,2.8,3.89,5.7,6,5.24c3.08-0.67,5.07-4.66,5.6-4.75
		c0.86-0.14,1.83,1.08-0.65,4.42c-2.48,3.34-5.24,4.6-9.42,2.96c-1.47-0.58-3.23-2.48-4.85-4.84c-1.56,1.78-4.67,4.13-7.66,4.23
		c-7.07,0.23-6.7-5.2-6.7-5.2s-4.62,6.37-10.38,6.29c-1.68-0.02-2.97-1.28-3.45-2.89c-3.82,4.04-7.62,4.5-9.51,2.93
		c-2.13-1.78,0.2-8.36-0.26-9.23c-0.46-0.87-7.13,8.68-9.12,10.37c-1.99,1.68-4.94-1.09-5.11-3.58c-0.17-2.49,2.6-9.32,1.78-9.64
		c-0.82-0.33-9.63,12.84-12.28,14.52c-1.37,0.87-4.27-1.63-3.41-4.56c0.43-1.48,1.08-3.91,1.78-7.25c-2.9,5.4-7.34,12.4-12.88,13.29
		c-3.86,0.62-5.68-1.26-6.63-4.76c-3.47,3.3-7.46,5.96-10.56,6.17c-1.85,0.12-5.31-0.36-5.42-4.58c-0.12-4.27,2.54-11.73,4.12-15.68
		c-2.31,0.78-7.01,3.41-11.19,3.92c1.59,4.58,2.36,10.71,0.71,18.53c-3.86,18.3-9.42,25.17-14.32,24.84
		c-6.76-0.45-4.44-23.5,3.17-45.4c-6.33-4.98-4.97-8.27-2.64-9.09c2.68-0.94,5.27,0.86,5.33,0.85c7.9-20.8,17.85-38.25,23.79-38.42
		c7.95-0.24,3.08,13.04,1.67,15.79c-1.37,2.65-4.45,0.95-3.57-0.76c1.06-2.07,4.13-9.74,1.73-10.07c-2.05-0.29-7.35,7.92-13.81,23.3
		c-2.25,5.35-4.64,12.28-5.36,14.11c0.55,0.73,1.09,1.55,1.6,2.46c9.14-0.43,14.06-5.14,15.27-5.94c1.41-1.8,7.05-1.96,6.18,0.36
		c-0.43,1.15-6.9,16.48-7.36,20.31c-0.25,2.1,1.35,1.85,2.75,1.3c1.4-0.55,4.96-3.07,7.47-5.69c-0.07-4.31,1.17-10.08,3.69-16.83
		c5.99-16.01,11.68-28.24,17.42-26.15c5.74,2.09,1.8,13.75-3.6,23.06c-2.52,4.35-6.67,10.94-11.34,16.81
		c-1.01,5.03-0.69,8.07,1.92,7.73c4.51-0.58,10.65-11.99,13.7-18.32c0,0,0.44-2.34,1.47-2.42c0.91-0.07,2.07,0.39,2.44,0.57
		c0.69,0.34,1.45,1.2,1.53,2.3c0.07,1.1-2,10.89-2,10.89s4.15-5.39,7.6-9.09c3.32-3.56,7.77-2.29,7.28,2.13
		c-0.39,3.51-2.06,9.5-2.06,9.5s5.52-6.48,7.69-8.95c2.1-2.39,5.91-1.61,6.24,0.64c0.48,3.24-2.08,9.75-0.51,9.74
		c1.55-0.01,3.62-2.57,5.2-4.94c0.56-1.36,1.46-2.86,2.74-4.47C269.27,42.97,274.12,41.49,276.05,41.49z M310.88,55.22
		c0.68-0.34,3.15,0.55,3.06,2.24c-0.13,2.68-4.61,3.9-5.05,1.12C308.54,56.38,310.19,55.56,310.88,55.22z"/>
</g>
</svg>
