<?xml version="1.0" encoding="utf-8"?>
<svg viewBox="0 0 500 371.517" stroke="none" fill="currentColor" class="w-6 h-6" preserveAspectRatio="xMinYMin" xmlns="http://www.w3.org/2000/svg">
  <path fill-rule="nonzero" d="M 334.045 0.261 C 333.627 0.307 333.053 0.865 332.774 1.392 C 332.449 1.934 331.566 3.034 330.652 3.825 C 329.257 5.033 322.609 11.355 316.256 17.414 C 315.094 18.452 312.088 21.319 309.671 23.581 C 305.472 27.424 303.163 29.686 295.322 37.078 C 289.992 42.222 288.659 43.4 284.956 46.855 C 282.926 48.715 280.385 51.163 279.331 52.124 C 276.929 54.51 264.331 66.426 261.372 69.153 C 260.039 70.331 257.281 72.903 255.143 74.964 C 253.066 76.963 248.836 80.93 245.737 83.889 C 242.715 86.771 239.539 89.731 238.904 90.413 C 238.175 91.156 235.076 93.961 232.101 96.812 C 229.142 99.539 224.927 103.537 222.866 105.49 C 220.79 107.473 217.35 110.696 215.351 112.726 C 213.259 114.632 211.074 116.491 210.485 116.77 C 209.354 117.39 209.354 117.39 206.983 115.267 C 205.573 114.152 204.21 112.881 203.729 112.463 C 203.342 111.982 201.994 110.758 200.708 109.642 C 199.39 108.604 197.5 106.931 196.508 105.97 C 195.517 105.087 194.014 103.63 193.099 102.917 C 192.154 102.205 191.054 101.321 190.667 100.872 C 190.233 100.454 188.823 99.137 187.645 98.052 C 186.297 96.936 184.344 95.201 183.229 94.209 C 181.369 92.443 172.134 84.277 170.802 83.145 C 170.368 82.835 169.577 82.076 168.896 81.534 C 166.928 79.705 161.504 74.685 157.847 71.601 C 155.911 69.85 154.222 68.285 154.051 68.053 C 153.834 67.774 152.316 66.426 150.518 64.985 C 148.86 63.544 147.14 62.056 146.768 61.684 C 144.862 59.964 135.689 51.891 134.666 50.962 C 134.124 50.559 133.008 49.985 132.234 49.737 C 131.18 49.474 115.592 49.397 78.62 49.397 C 27.718 49.397 26.4 49.397 25.564 50.047 C 24.711 50.791 24.711 50.791 25.378 51.922 C 25.812 52.589 26.726 53.72 27.609 54.494 C 28.368 55.254 29.809 56.571 30.693 57.485 C 31.607 58.291 34.319 60.879 36.674 63.203 C 39.091 65.465 44.576 70.765 48.931 74.964 C 56.802 82.712 72.824 98.238 80.944 106.187 C 83.408 108.465 87.855 112.834 90.861 115.763 C 99.647 124.317 109.967 134.125 111.439 135.458 C 112.183 136.047 113.314 136.728 113.965 136.961 C 114.662 137.131 128.546 137.271 148.225 137.271 C 167.563 137.271 181.431 137.472 181.741 137.612 C 182.206 137.875 182.253 138.216 181.958 139.146 C 181.741 140.075 180.192 141.733 175.992 145.654 C 169.624 151.495 166.866 154.13 157.584 162.9 C 154.051 166.371 147.59 172.445 143.313 176.365 C 138.974 180.348 135.085 184.067 134.511 184.485 C 133.008 185.942 127.353 191.318 123.525 194.805 C 120.008 198.105 118.567 199.484 112.74 205.016 C 111.067 206.659 107.085 210.378 103.862 213.368 C 100.67 216.359 97.71 219.102 97.276 219.582 C 96.904 219.985 94.549 222.17 92.07 224.494 C 89.606 226.772 87.034 229.112 86.429 229.716 C 85.779 230.258 83.284 232.722 80.851 234.953 C 78.31 237.309 74.637 240.718 72.731 242.624 C 63.698 251.161 61.265 253.47 59.436 255.159 C 58.321 256.151 56.849 257.592 56.151 258.243 C 55.408 258.894 52.866 261.311 50.465 263.542 C 48.125 265.727 45.63 268.005 45.088 268.609 C 42.175 271.352 30.383 282.354 21.085 291.139 C 18.064 293.898 15.182 296.687 14.546 297.276 C 8.72 302.807 2.77 308.479 2.057 308.99 C 0.632 310.09 -0.422 312.306 0.167 312.864 C 0.523 313.158 16.05 313.282 70.593 313.375 C 109.13 313.437 141.097 313.375 141.701 313.282 C 143.809 312.91 145.839 311.035 163.131 293.076 C 167.981 287.994 184.081 271.398 187.645 267.71 C 189.334 265.96 194.107 260.985 198.352 256.6 C 212.562 241.818 211.074 243.212 212.329 243.507 C 213.119 243.693 216.327 246.714 225.128 255.686 C 231.605 262.101 238.377 269.028 240.283 270.934 C 242.204 272.886 249.642 280.339 256.754 287.684 C 271.196 302.389 307.486 339.098 323.632 355.368 C 329.412 361.147 335.316 367.268 336.819 368.895 L 339.577 371.886 L 419.409 371.886 C 480.894 371.886 499.21 371.855 499.535 371.483 C 499.83 371.219 500 370.615 500 370.011 C 500 369.251 499.489 368.725 497.598 367.206 C 496.219 366.23 494.205 364.448 493.136 363.487 C 491.989 362.434 490.347 360.992 489.494 360.295 C 488.673 359.598 487.557 358.684 486.922 358.11 C 484.753 356.235 481.793 353.648 480.863 352.919 C 479.376 351.773 470.373 344.18 467.646 341.732 C 466.36 340.616 462.408 337.254 458.922 334.278 C 455.482 331.35 450.663 327.197 448.261 325.167 C 445.875 323.091 443.101 320.658 442.063 319.806 C 435.602 314.197 421.702 302.451 419.471 300.623 C 418.185 299.445 416.496 298.035 415.891 297.508 C 414.512 296.222 407.617 290.38 405.912 288.893 C 405.091 288.319 402.271 285.871 399.497 283.469 C 396.77 281.036 393.02 277.844 391.192 276.341 C 389.394 274.962 387.024 272.901 385.939 271.894 C 384.823 270.872 383.274 269.539 382.499 268.935 C 381.755 268.377 380.81 267.525 380.407 267.106 C 379.989 266.688 376.967 264.178 373.729 261.466 C 370.599 258.863 367.608 256.321 367.035 255.857 C 366.554 255.407 365.16 254.245 363.967 253.083 C 362.804 252.014 360.201 249.829 358.342 248.248 C 356.482 246.714 354.654 245.211 354.251 244.87 C 353.926 244.545 352.996 243.739 352.314 243.135 C 350.036 241.291 337.175 230.227 336.478 229.561 C 336.121 229.298 335.207 228.492 334.525 227.856 C 333.72 227.221 329.675 223.797 325.445 220.202 C 321.184 216.576 317.031 213.244 316.039 212.702 L 314.335 211.803 L 279.207 211.803 C 245.598 211.803 243.986 211.741 243.475 211.106 C 243.103 210.75 242.839 210.223 242.839 210.006 C 242.839 209.634 246.124 206.116 261.155 190.761 C 265.37 186.561 268.872 182.858 269.011 182.657 C 269.166 182.486 272.699 178.767 276.976 174.459 C 281.299 170.012 288.148 163.086 292.177 158.902 C 296.128 154.703 302.977 147.73 307.176 143.391 C 314.815 135.613 330.946 118.955 333.1 116.77 C 333.72 116.15 337.237 112.556 340.909 108.744 C 359.24 89.932 363.517 85.516 371.59 77.18 C 376.378 72.206 384.08 64.319 388.697 59.608 C 393.315 54.882 399.606 48.405 402.689 45.213 C 410.344 37.31 421.904 25.487 429.419 17.74 C 443.148 3.825 443.272 3.546 443.272 2.136 C 443.272 1.392 443.179 0.648 442.9 0.416 C 442.574 0.121 430.054 -0.049 388.697 0.013 C 359.163 0.075 334.541 0.199 334.045 0.261 Z"/>
</svg>