<svg fill="none" viewBox="0 0 24 24" stroke-width="1.5" stroke="currentColor" class="w-6 h-6" xmlns="http://www.w3.org/2000/svg">
  <path stroke-linecap="round" stroke-linejoin="round" d="M 21 12 C 21 18.928 13.5 23.258 7.5 19.794 C 4.715 18.187 3 15.215 3 12 C 3 5.072 10.5 0.742 16.5 4.206 C 19.285 5.813 21 8.785 21 12 Z" style="stroke: none;"/>
  <path d="M 21.75 12 C 21.75 15.672 19.644 18.845 16.875 20.444 C 14.106 22.042 10.337 22.225 7.125 20.444 C 4.203 18.699 2.25 15.402 2.25 12 C 2.25 8.328 4.356 5.155 7.125 3.556 C 9.894 1.958 13.663 1.775 16.875 3.556 C 19.797 5.301 21.75 8.598 21.75 12 Z M 16.125 4.856 C 13.337 3.173 10.356 3.423 7.875 4.856 C 5.394 6.288 3.75 8.744 3.75 12 C 3.75 15.028 5.227 17.675 7.875 19.144 C 10.663 20.827 13.644 20.577 16.125 19.144 C 18.606 17.712 20.25 15.256 20.25 12 C 20.25 8.972 18.773 6.325 16.125 4.856 Z" style="fill: rgba(255, 255, 255, 0.8); stroke: none;"/>
  <path d="M 17.066 11.124 C 17.066 8.034 14.668 5.934 12 5.934 C 9.36 5.934 6.934 7.989 6.934 11.158 C 6.596 11.349 6.371 11.709 6.371 12.126 L 6.371 13.251 C 6.371 13.871 6.878 14.377 7.497 14.377 L 8.06 14.377 L 8.06 10.944 C 8.06 8.765 9.822 7.004 12 7.004 C 14.178 7.004 15.94 8.765 15.94 10.944 L 15.94 15.503 L 11.437 15.503 L 11.437 16.629 L 15.94 16.629 C 16.559 16.629 17.066 16.122 17.066 15.503 L 17.066 14.253 C 17.398 14.079 17.629 13.736 17.629 13.33 L 17.629 12.036 C 17.629 11.642 17.398 11.298 17.066 11.124 Z" style="stroke: none; fill: currentColor;"/>
  <circle cx="10.311" cy="11.563" r="0.563" style="stroke: none; fill: currentColor;"/>
  <circle cx="13.689" cy="11.563" r="0.563" style="stroke: none; fill: currentColor;"/>
  <path d="M 15.377 10.454 C 15.107 8.85 13.711 7.623 12.028 7.623 C 10.323 7.623 8.488 9.036 8.634 11.253 C 10.024 10.685 11.071 9.446 11.37 7.938 C 12.107 9.418 13.621 10.437 15.377 10.454 Z" style="stroke: none; fill: currentColor;"/>
</svg>