<?xml version="1.0" encoding="utf-8"?>
<svg viewBox="0 0 500 350" preserveAspectRatio="xMinYMin" xmlns="http://www.w3.org/2000/svg">
  <path d="M 281.25 31.237 C 281.25 7.181 255.209 -7.854 234.375 4.174 C 224.706 9.756 218.75 20.072 218.75 31.237 C 218.75 55.293 244.791 70.328 265.625 58.3 C 275.294 52.718 281.25 42.402 281.25 31.237 Z M 112.5 137.487 C 136.556 137.487 151.591 111.446 139.563 90.612 C 133.981 80.943 123.665 74.987 112.5 74.987 C 88.444 74.987 73.409 101.028 85.437 121.862 C 91.019 131.531 101.335 137.487 112.5 137.487 Z M 25 299.987 C 11.172 299.987 0 311.159 0 324.987 C 0 338.815 11.172 349.987 25 349.987 L 475 349.987 C 488.828 349.987 500 338.815 500 324.987 C 500 311.159 488.828 299.987 475 299.987 L 25 299.987 Z M 387.5 137.487 C 411.556 137.487 426.591 111.446 414.563 90.612 C 408.981 80.943 398.665 74.987 387.5 74.987 C 363.444 74.987 348.409 101.028 360.437 121.862 C 366.019 131.531 376.335 137.487 387.5 137.487 Z M 156.25 219.909 L 177.266 258.893 C 182.187 268.034 193.516 271.393 202.656 266.549 C 211.797 261.706 215.156 250.299 210.312 241.159 L 181.953 188.424 C 183.281 187.096 184.453 185.612 185.312 183.893 L 206.25 144.909 L 206.25 187.487 C 206.25 201.315 217.422 212.487 231.25 212.487 L 268.75 212.487 C 282.578 212.487 293.75 201.315 293.75 187.487 L 293.75 144.909 L 314.766 183.893 C 315.703 185.612 316.797 187.096 318.125 188.424 L 289.766 241.159 C 284.844 250.299 288.281 261.628 297.422 266.549 C 306.562 271.471 317.891 268.034 322.812 258.893 L 343.75 219.909 L 343.75 249.987 C 343.75 263.815 354.922 274.987 368.75 274.987 L 406.25 274.987 C 420.078 274.987 431.25 263.815 431.25 249.987 L 431.25 219.909 L 452.266 258.893 C 457.187 268.034 468.516 271.393 477.656 266.549 C 486.797 261.706 490.156 250.299 485.312 241.159 L 455.703 186.237 C 443.75 163.971 420.469 150.065 395.156 150.065 L 379.844 150.065 C 367.109 150.065 354.922 153.581 344.375 159.909 L 318.125 111.237 C 306.172 88.971 282.891 75.065 257.578 75.065 L 242.344 75.065 C 217.031 75.065 193.828 88.971 181.797 111.237 L 155.547 159.909 C 145 153.581 132.812 150.065 120.078 150.065 L 104.844 150.065 C 79.531 150.065 56.328 163.971 44.297 186.237 L 14.766 241.081 C 9.844 250.221 13.281 261.549 22.422 266.471 C 31.562 271.393 42.891 267.956 47.812 258.815 L 68.75 219.909 L 68.75 249.987 C 68.75 263.815 79.922 274.987 93.75 274.987 L 131.25 274.987 C 145.078 274.987 156.25 263.815 156.25 249.987 L 156.25 219.909 Z" style="fill: rgb(255, 255, 255);"/>
</svg>