<?xml version="1.0" encoding="utf-8"?>
<svg viewBox="0 0 500 500" preserveAspectRatio="xMinYMin" xmlns="http://www.w3.org/2000/svg">
  <path d="M 4.004 37.286 C 1.367 33.381 0 28.696 0 24.011 C 0 10.737 10.742 0 24.023 0 L 130.762 0 C 141.699 0 151.953 5.759 157.52 15.129 L 224.414 126.498 C 177.344 132.452 135.254 154.413 103.906 186.916 L 4.004 37.286 Z M 495.898 37.286 L 396.094 186.916 C 364.746 154.413 322.656 132.452 275.586 126.498 L 342.48 15.129 C 348.145 5.759 358.301 0 369.238 0 L 475.977 0 C 489.258 0 500 10.737 500 24.011 C 500 28.696 498.633 33.381 495.996 37.286 L 495.898 37.286 Z M 78.125 327.957 C 78.125 195.715 221.355 113.064 335.938 179.186 C 389.116 209.872 421.875 266.583 421.875 327.957 C 421.875 460.199 278.646 542.85 164.063 476.728 C 110.884 446.042 78.125 389.331 78.125 327.957 Z M 258.203 235.329 C 254.883 228.496 245.215 228.496 241.797 235.329 L 219.922 279.642 C 218.555 282.375 216.016 284.229 213.086 284.62 L 164.063 291.745 C 156.543 292.819 153.613 301.994 158.984 307.362 L 194.434 341.915 C 196.582 344.062 197.559 346.99 197.07 350.016 L 188.672 398.721 C 187.402 406.139 195.215 411.898 201.953 408.384 L 245.703 385.349 C 248.34 383.983 251.563 383.983 254.199 385.349 L 297.949 408.384 C 304.688 411.898 312.5 406.237 311.23 398.721 L 302.832 350.016 C 302.344 347.088 303.32 344.062 305.469 341.915 L 340.918 307.362 C 346.387 302.091 343.359 292.916 335.84 291.745 L 286.914 284.62 C 283.984 284.229 281.348 282.277 280.078 279.642 L 258.203 235.329 Z" style="fill: rgb(255, 255, 255);"/>
</svg>